<?xml version="1.0" encoding="UTF-8" standalone="no"?>
<!DOCTYPE svg PUBLIC "-//W3C//DTD SVG 1.1//EN" "http://www.w3.org/Graphics/SVG/1.1/DTD/svg11.dtd">
<svg id="last-name" width="100%" height="100%" viewBox="0 0 1024 284" version="1.1" xml:space="preserve" style="fill-rule:evenodd;clip-rule:evenodd;stroke-linejoin:round;stroke-miterlimit:1.41421;">
    <g transform="matrix(1.17346,0,0,1.23017,-531.526,-686.592)">
        <g transform="matrix(1,0,0,1,-3.38523,240.079)">
            <path d="M583.634,499.795L583.634,526.223L456.34,526.223L456.34,356.498L580.239,356.498L580.239,382.927L487.86,382.927L487.86,427.055L569.813,427.055L569.813,452.999L487.86,452.999L487.86,499.795L583.634,499.795Z" style="fill-rule:nonzero;"/>
        </g>
        <g transform="matrix(1,0,0,1,-3.38523,240.079)">
            <path d="M654.676,527.921C644.169,527.921 633.905,526.547 623.883,523.799C613.861,521.051 605.86,517.576 599.879,513.373L611.517,490.339C617.336,494.218 624.327,497.33 632.49,499.674C640.653,502.017 648.695,503.189 656.616,503.189C674.72,503.189 683.772,498.421 683.772,488.884C683.772,484.358 681.468,481.206 676.861,479.428C672.255,477.65 664.859,475.952 654.676,474.336C644.007,472.72 635.319,470.861 628.611,468.759C621.903,466.658 616.084,462.981 611.153,457.727C606.223,452.474 603.758,445.159 603.758,435.784C603.758,423.499 608.89,413.679 619.155,406.325C629.419,398.97 643.28,395.293 660.738,395.293C669.628,395.293 678.518,396.303 687.409,398.323C696.299,400.344 703.573,403.051 709.23,406.446L697.592,429.48C686.6,423.014 674.235,419.782 660.495,419.782C651.605,419.782 644.856,421.115 640.249,423.782C635.642,426.449 633.339,429.965 633.339,434.329C633.339,439.179 635.804,442.614 640.734,444.634C645.664,446.655 653.302,448.554 663.647,450.332C673.992,451.948 682.479,453.807 689.106,455.909C695.733,458.01 701.431,461.566 706.2,466.577C710.968,471.588 713.352,478.7 713.352,487.914C713.352,500.037 708.099,509.736 697.592,517.01C687.085,524.284 672.78,527.921 654.676,527.921Z" style="fill-rule:nonzero;"/>
        </g>
        <g transform="matrix(1,0,0,1,-3.38523,240.079)">
            <path d="M817.37,519.192C813.814,522.102 809.49,524.284 804.398,525.739C799.306,527.193 793.931,527.921 788.274,527.921C774.049,527.921 763.058,524.203 755.299,516.767C747.54,509.332 743.66,498.502 743.66,484.277L743.66,421.964L722.324,421.964L722.324,397.717L743.66,397.717L743.66,368.137L773.968,368.137L773.968,397.717L808.641,397.717L808.641,421.964L773.968,421.964L773.968,483.55C773.968,489.854 775.504,494.663 778.575,497.976C781.647,501.29 786.092,502.947 791.911,502.947C798.7,502.947 804.357,501.169 808.883,497.613L817.37,519.192Z" style="fill-rule:nonzero;"/>
        </g>
        <g transform="matrix(1,0,0,1,-3.38523,240.079)">
            <path d="M891.806,395.293C910.88,395.293 925.468,399.859 935.571,408.992C945.674,418.125 950.725,431.905 950.725,450.332L950.725,526.223L922.114,526.223L922.114,510.463C918.397,516.121 913.103,520.445 906.233,523.435C899.363,526.426 891.079,527.921 881.38,527.921C871.682,527.921 863.195,526.264 855.922,522.95C848.648,519.637 843.03,515.03 839.07,509.13C835.11,503.23 833.13,496.562 833.13,489.126C833.13,477.488 837.454,468.153 846.102,461.122C854.75,454.09 868.368,450.575 886.957,450.575L920.417,450.575L920.417,448.635C920.417,439.583 917.71,432.632 912.295,427.783C906.88,422.934 898.838,420.509 888.169,420.509C880.895,420.509 873.743,421.64 866.711,423.903C859.68,426.166 853.739,429.318 848.89,433.36L837.009,411.295C843.798,406.123 851.961,402.162 861.498,399.414C871.035,396.667 881.138,395.293 891.806,395.293ZM887.684,505.856C895.282,505.856 902.03,504.119 907.93,500.643C913.83,497.168 917.992,492.198 920.417,485.732L920.417,470.699L889.139,470.699C871.682,470.699 862.953,476.437 862.953,487.914C862.953,493.41 865.135,497.774 869.5,501.007C873.864,504.24 879.926,505.856 887.684,505.856ZM906.839,345.83L942.481,345.83L900.293,379.047L874.106,379.047L906.839,345.83Z" style="fill-rule:nonzero;"/>
        </g>
        <g transform="matrix(1,0,0,1,-3.38523,240.079)">
            <path d="M1050.14,527.921C1036.72,527.921 1024.68,525.092 1014.01,519.434C1003.34,513.777 995.015,505.897 989.035,495.794C983.054,485.691 980.063,474.255 980.063,461.485C980.063,448.716 983.054,437.32 989.035,427.298C995.015,417.276 1003.3,409.436 1013.89,403.779C1024.47,398.121 1036.56,395.293 1050.14,395.293C1062.9,395.293 1074.1,397.879 1083.72,403.051C1093.34,408.224 1100.57,415.66 1105.42,425.358L1082.14,438.936C1078.42,432.955 1073.78,428.47 1068.2,425.479C1062.62,422.489 1056.52,420.994 1049.89,420.994C1038.58,420.994 1029.2,424.671 1021.77,432.026C1014.33,439.381 1010.61,449.201 1010.61,461.485C1010.61,473.77 1014.29,483.59 1021.65,490.945C1029,498.3 1038.42,501.977 1049.89,501.977C1056.52,501.977 1062.62,500.482 1068.2,497.491C1073.78,494.501 1078.42,490.015 1082.14,484.035L1105.42,497.613C1100.41,507.311 1093.09,514.787 1083.47,520.041C1073.86,525.294 1062.74,527.921 1050.14,527.921Z" style="fill-rule:nonzero;"/>
        </g>
        <g transform="matrix(1,0,0,1,-3.38523,240.079)">
            <path d="M1131.6,396.747L1161.91,396.747L1161.91,526.223L1131.6,526.223L1131.6,396.747ZM1146.88,375.41C1141.38,375.41 1136.78,373.673 1133.06,370.198C1129.34,366.722 1127.48,362.398 1127.48,357.226C1127.48,352.053 1129.34,347.729 1133.06,344.254C1136.78,340.778 1141.38,339.041 1146.88,339.041C1152.38,339.041 1156.98,340.698 1160.7,344.011C1164.42,347.325 1166.28,351.487 1166.28,356.498C1166.28,361.832 1164.46,366.318 1160.82,369.955C1157.18,373.592 1152.54,375.41 1146.88,375.41Z" style="fill-rule:nonzero;"/>
        </g>
        <g transform="matrix(1,0,0,1,-3.38523,240.079)">
            <path d="M1259.87,527.921C1246.77,527.921 1234.98,525.092 1224.47,519.434C1213.96,513.777 1205.76,505.897 1199.86,495.794C1193.96,485.691 1191.01,474.255 1191.01,461.485C1191.01,448.716 1193.96,437.32 1199.86,427.298C1205.76,417.276 1213.96,409.436 1224.47,403.779C1234.98,398.121 1246.77,395.293 1259.87,395.293C1273.12,395.293 1285,398.121 1295.51,403.779C1306.02,409.436 1314.22,417.276 1320.12,427.298C1326.02,437.32 1328.97,448.716 1328.97,461.485C1328.97,474.255 1326.02,485.691 1320.12,495.794C1314.22,505.897 1306.02,513.777 1295.51,519.434C1285,525.092 1273.12,527.921 1259.87,527.921ZM1259.87,501.977C1271.02,501.977 1280.24,498.259 1287.51,490.824C1294.78,483.388 1298.42,473.609 1298.42,461.485C1298.42,449.362 1294.78,439.583 1287.51,432.147C1280.24,424.712 1271.02,420.994 1259.87,420.994C1248.71,420.994 1239.54,424.712 1232.35,432.147C1225.15,439.583 1221.56,449.362 1221.56,461.485C1221.56,473.609 1225.15,483.388 1232.35,490.824C1239.54,498.259 1248.71,501.977 1259.87,501.977Z" style="fill-rule:nonzero;"/>
        </g>
    </g>
</svg>
