<?xml version="1.0" encoding="UTF-8" standalone="no"?>
<!DOCTYPE svg PUBLIC "-//W3C//DTD SVG 1.1//EN" "http://www.w3.org/Graphics/SVG/1.1/DTD/svg11.dtd">
<svg id="first-name" width="100%" height="100%" viewBox="0 0 1200 500" preserveAspectRatio="xMidYMin meet" style="fill-rule:evenodd;clip-rule:evenodd;stroke-linejoin:round;stroke-miterlimit:1.41421;">
    
    <filter id="red-glow" filterUnits="userSpaceOnUse" x="-100%" y="-100%" width="200%" height="400%">
        <!-- blur the text at different levels-->
        <feGaussianBlur in="SourceGraphic" stdDeviation="5" result="blur5"/>
        <feGaussianBlur in="SourceGraphic" stdDeviation="10" result="blur10"/>
        <feGaussianBlur in="SourceGraphic" stdDeviation="20" result="blur20"/>
        <feGaussianBlur in="SourceGraphic" stdDeviation="30" result="blur30"/>
        <feGaussianBlur in="SourceGraphic" stdDeviation="40" result="blur50"/>
        <!-- merge all the blurs except for the first one -->
        <feMerge result="blur-merged">
            <feMergeNode in="blur10"/>
            <feMergeNode in="blur20"/>
            <feMergeNode in="blur30"/>
            <feMergeNode in="blur50"/>
        </feMerge>
        <!-- recolour the merged blurs red-->
        <feColorMatrix result="red-blur" in="blur-merged" type="matrix"
                     values="1 0 0 0 0
                             0 0.06 0 0 0
                             0 0 0.44 0 0
                             0 0 0 1 0" />
        <feMerge>
            <feMergeNode in="red-blur"/>       <!-- largest blurs coloured red -->
            <feMergeNode in="blur5"/>          <!-- smallest blur left white -->
            <feMergeNode in="SourceGraphic"/>  <!-- original white text -->
        </feMerge>
    </filter>
    
    <g filter="url(#red-glow)" transform="matrix(1.22964,0,0,1.22964,-352.966,-414.37)">
        <g transform="matrix(1,0,0,1,-148.868,324.911)">
            <path d="M692.114,144.768C692.114,147.294 691.68,149.898 690.812,152.582C689.943,155.265 688.878,157.712 687.615,159.922C685.563,160.238 683.708,160.948 682.051,162.053C680.393,163.158 679.091,163.868 678.144,164.184C676.092,164.5 673.684,164.618 670.922,164.539C668.16,164.46 665.673,164.5 663.463,164.658C659.201,164.973 654.979,165.447 650.796,166.078C646.612,166.71 642.469,167.499 638.364,168.446C638.049,168.446 637.733,168.486 637.417,168.564C637.102,168.643 636.944,168.841 636.944,169.156C636.944,169.472 637.023,169.788 637.181,170.104C637.338,170.419 637.417,170.735 637.417,171.051C637.417,171.524 636.944,171.761 635.997,171.761C634.26,171.761 633.076,171.209 632.445,170.104C627.394,171.366 622.342,172.669 617.291,174.01C612.24,175.352 607.188,176.655 602.137,177.917C599.611,178.391 597.125,178.865 594.678,179.338C592.231,179.812 589.745,180.443 587.22,181.232C585.957,181.548 584.694,182.101 583.431,182.89C582.168,183.679 580.905,184.468 579.643,185.258C578.853,185.1 578.143,184.981 577.512,184.902C576.88,184.824 576.249,184.784 575.617,184.784C572.934,184.784 570.092,185.297 567.093,186.323C564.094,187.349 561.489,188.73 559.279,190.467L557.622,190.467C556.043,190.467 554.938,190.23 554.307,189.756C552.886,189.599 552.018,190.033 551.702,191.059C551.387,192.085 550.834,192.992 550.045,193.782C544.678,194.255 539.39,195.202 534.18,196.623C528.971,198.044 523.841,199.583 518.79,201.24C513.738,202.898 508.647,204.555 503.517,206.213C498.387,207.87 493.217,209.173 488.008,210.12C487.377,213.277 487.061,216.907 487.061,221.012C487.061,224.169 487.337,227.799 487.89,231.904C488.442,236.008 489.665,239.481 491.56,242.322L491.56,242.796C491.56,243.585 491.244,244.137 490.613,244.453C489.981,244.769 489.665,245.321 489.665,246.111C489.665,250.215 490.1,254.082 490.968,257.713C491.836,261.344 492.744,264.895 493.691,268.368C494.638,271.841 495.546,275.314 496.414,278.786C497.282,282.259 497.716,285.811 497.716,289.442C497.716,290.389 497.677,291.296 497.598,292.165C497.519,293.033 497.4,293.94 497.242,294.888C497.716,296.308 498.505,297.492 499.61,298.439C500.715,299.386 501.662,300.491 502.452,301.754C502.61,302.544 502.688,303.293 502.688,304.004C502.688,304.714 502.688,305.464 502.688,306.253C502.688,308.937 502.373,311.304 501.741,313.357C501.11,315.409 500.321,317.342 499.374,319.158C498.426,320.973 497.4,322.788 496.295,324.604C495.19,326.419 494.164,328.432 493.217,330.642C491.639,330.957 490.376,331.115 489.429,331.115C487.061,331.115 485.127,330.484 483.628,329.221C482.128,327.958 480.826,326.419 479.721,324.604C478.616,322.788 477.55,320.934 476.524,319.039C475.498,317.145 474.275,315.567 472.854,314.304C473.012,313.514 473.13,312.804 473.209,312.173C473.288,311.541 473.328,310.831 473.328,310.042C473.328,306.885 472.814,303.806 471.788,300.807C470.762,297.808 469.618,294.967 468.355,292.283C468.197,286.916 467.645,281.628 466.698,276.419C465.75,271.209 464.409,266.079 462.672,261.028C462.988,259.134 463.225,257.279 463.383,255.463C463.541,253.648 463.619,251.872 463.619,250.136C463.619,245.558 463.383,240.98 462.909,236.402C462.436,231.825 462.357,227.247 462.672,222.669C462.199,221.88 461.725,221.209 461.252,220.657C460.778,220.104 460.383,219.433 460.068,218.644L459.121,218.644C456.753,218.644 454.464,218.841 452.254,219.236C450.044,219.63 447.834,219.828 445.624,219.828C444.835,219.828 444.124,219.788 443.493,219.709C442.862,219.63 442.151,219.512 441.362,219.354C439.626,217.618 438.284,215.645 437.337,213.435C436.39,211.225 435.916,208.936 435.916,206.568C435.916,203.095 436.863,199.938 438.757,197.097C442.704,196.15 446.611,195.005 450.478,193.663C454.346,192.322 458.095,190.704 461.725,188.809C462.199,186.442 462.475,184.074 462.554,181.706C462.633,179.338 463.462,177.128 465.04,175.076C464.567,173.813 463.817,172.669 462.791,171.643C461.765,170.617 461.252,169.393 461.252,167.973C461.252,167.183 461.409,166.157 461.725,164.894C463.304,163.158 464.409,160.948 465.04,158.264C465.672,155.581 466.224,152.74 466.698,149.74C467.171,146.741 467.684,143.742 468.237,140.743C468.789,137.743 469.776,135.06 471.196,132.692C470.881,131.429 470.644,130.048 470.486,128.548C470.328,127.049 470.249,125.668 470.249,124.405C470.249,122.51 470.368,120.577 470.605,118.604C470.841,116.63 471.275,114.776 471.907,113.039C470.17,110.987 468.75,108.58 467.645,105.817C466.54,103.055 465.987,100.332 465.987,97.648C465.987,92.439 468.513,89.124 473.564,87.703C473.406,87.072 473.288,86.52 473.209,86.046C473.13,85.572 473.091,85.099 473.091,84.625C473.091,83.205 473.485,81.863 474.275,80.6C475.064,79.337 475.695,78.074 476.169,76.812C475.38,74.759 474.985,73.023 474.985,71.602C474.985,70.339 475.222,69.195 475.695,68.169C476.169,67.143 476.564,65.998 476.879,64.736C477.353,63.157 477.708,61.736 477.945,60.474C478.182,59.211 478.616,58.106 479.247,57.159C479.878,56.212 480.707,55.501 481.733,55.028C482.759,54.554 484.377,54.317 486.587,54.317C490.06,54.317 493.415,55.383 496.651,57.514C499.887,59.645 502.373,62.052 504.109,64.736C505.846,64.578 507.385,64.223 508.726,63.67C510.068,63.118 511.331,62.605 512.515,62.131C513.699,61.657 514.962,61.223 516.303,60.829C517.645,60.434 519.263,60.316 521.157,60.474C521.631,59.369 522.46,58.619 523.644,58.224C524.828,57.83 526.051,57.514 527.314,57.277C528.577,57.04 529.761,56.685 530.866,56.212C531.97,55.738 532.681,54.87 532.997,53.607C533.628,54.08 534.338,54.317 535.128,54.317C535.917,54.317 536.706,54.199 537.495,53.962C538.285,53.725 539.153,53.607 540.1,53.607C541.047,53.607 541.836,53.923 542.468,54.554C546.572,52.344 550.953,50.726 555.609,49.7C560.266,48.674 564.883,48.082 569.461,47.924C580.353,41.926 591.837,37.821 603.913,35.611C615.989,33.402 628.104,32.297 640.259,32.297C641.995,32.297 643.692,32.257 645.35,32.178C647.007,32.099 648.625,32.218 650.204,32.533C651.94,32.849 653.874,33.402 656.005,34.191C658.136,34.98 660.267,35.927 662.398,37.032C664.529,38.137 666.542,39.361 668.436,40.702C670.33,42.044 671.909,43.267 673.171,44.372C674.434,47.214 675.066,49.976 675.066,52.66C675.066,53.923 674.987,55.146 674.829,56.33C674.671,57.514 674.592,58.737 674.592,60C674.592,61.894 674.987,64.025 675.776,66.393C675.302,66.235 674.513,66.156 673.408,66.156C671.987,66.156 670.804,66.472 669.856,67.103C668.909,67.735 668.041,68.445 667.252,69.235C666.463,70.024 665.713,70.734 665.002,71.366C664.292,71.997 663.621,72.313 662.99,72.313C661.727,72.313 660.661,72.076 659.793,71.602C658.925,71.129 658.057,70.616 657.189,70.063C656.32,69.511 655.413,69.037 654.466,68.643C653.519,68.248 652.414,68.13 651.151,68.287L651.151,67.34C651.151,65.604 650.598,64.459 649.493,63.907C648.388,63.354 647.52,62.526 646.889,61.421C644.521,61.263 642.192,60.947 639.904,60.474C637.615,60 635.286,59.763 632.918,59.763C629.761,59.763 627.315,60.868 625.578,63.078C624.789,62.762 624.118,62.368 623.566,61.894C623.013,61.421 622.263,61.263 621.316,61.421L620.606,61.421C612.082,61.421 603.715,62.328 595.507,64.144C587.299,65.959 579.169,68.169 571.118,70.774C563.068,73.378 555.017,76.18 546.967,79.179C538.916,82.179 530.866,84.783 522.815,86.993C520.921,89.519 518.947,91.374 516.895,92.558C514.843,93.741 512.831,94.728 510.857,95.517C508.884,96.307 506.951,97.096 505.056,97.885C503.162,98.674 501.544,99.937 500.202,101.674C498.86,103.41 497.834,105.817 497.124,108.895C496.414,111.974 496.216,116.196 496.532,121.563C495.743,122.51 495.269,123.536 495.111,124.641C494.954,125.746 494.796,126.812 494.638,127.838C494.48,128.864 494.243,129.851 493.928,130.798C493.612,131.745 493.059,132.613 492.27,133.402C492.586,134.981 492.823,136.559 492.98,138.138C493.138,139.717 493.217,141.295 493.217,142.874C493.217,149.504 492.112,155.976 489.902,162.29C490.692,163.553 491.086,164.973 491.086,166.552C491.086,168.288 490.849,169.867 490.376,171.287C489.902,172.708 489.665,174.287 489.665,176.023C489.665,177.76 489.981,179.18 490.613,180.285C491.56,180.285 492.112,180.601 492.27,181.232L493.691,181.232C496.532,181.232 498.979,180.522 501.031,179.101C503.083,177.681 505.293,176.97 507.661,176.97C508.134,176.97 508.687,177.128 509.318,177.444C509.95,177.76 510.502,177.917 510.976,177.917C512.081,177.917 512.554,177.523 512.397,176.733C512.239,175.944 512.633,175.392 513.58,175.076L522.105,173.655C527.472,172.708 532.562,171.564 537.377,170.222C542.192,168.88 546.967,166.868 551.702,164.184C552.807,164.658 554.07,164.894 555.491,164.894C556.754,164.894 558.095,164.697 559.516,164.302C560.937,163.908 562.279,163.71 563.541,163.71C564.646,163.71 565.515,163.868 566.146,164.184C567.093,163.553 568.277,163.04 569.698,162.645C571.118,162.25 571.908,161.343 572.066,159.922L572.539,159.922C573.171,159.922 573.644,160.08 573.96,160.396C574.276,160.711 574.749,160.869 575.38,160.869L576.328,160.869C579.643,159.291 582.642,158.107 585.325,157.317C589.745,156.212 594.481,155.226 599.532,154.358C604.584,153.489 609.082,151.95 613.029,149.74C617.607,149.74 622.066,148.991 626.407,147.491C630.748,145.991 635.128,145.241 639.548,145.241C641.6,145.241 643.495,145.557 645.231,146.189C646.81,145.084 648.664,144.294 650.796,143.821C652.927,143.347 654.702,142.479 656.123,141.216C657.07,141.374 658.057,141.492 659.083,141.571C660.109,141.65 661.174,141.69 662.279,141.69C667.015,141.69 671.553,141.019 675.894,139.677C680.235,138.335 684.695,137.349 689.273,136.717C690.378,137.98 691.127,139.282 691.522,140.624C691.917,141.966 692.114,143.347 692.114,144.768Z" style="fill-rule:nonzero;"/>
        </g>
        <g transform="matrix(1,0,0,1,-148.868,324.911)">
            <path d="M702.532,251.32C701.743,252.583 700.796,253.727 699.691,254.753C698.586,255.779 697.56,256.845 696.613,257.95C695.508,258.423 694.284,258.66 692.943,258.66C691.601,258.66 690.338,258.621 689.154,258.542C687.97,258.463 686.865,258.463 685.839,258.542C684.813,258.621 683.984,258.976 683.353,259.607C682.09,259.291 681.143,258.699 680.512,257.831C679.88,256.963 678.775,256.45 677.197,256.292C676.565,256.134 675.934,256.134 675.302,256.292C672.935,253.609 670.764,250.767 668.791,247.768C666.818,244.769 664.963,241.927 663.227,239.244C663.069,233.403 662.595,227.484 661.806,221.485C661.648,220.065 661.411,218.644 661.096,217.223C660.78,215.802 660.543,214.461 660.385,213.198C660.385,211.619 660.504,210.08 660.74,208.581C660.977,207.081 661.174,205.7 661.332,204.437C661.964,199.859 662.674,195.36 663.463,190.94C664.253,186.52 664.963,182.022 665.594,177.444C666.226,173.34 666.542,169.038 666.542,164.539C666.542,160.04 665.831,155.818 664.41,151.871L664.174,150.687C664.489,149.425 664.845,148.359 665.239,147.491C665.634,146.623 665.91,145.636 666.068,144.531C666.384,142.795 665.989,141.532 664.884,140.743C665.358,139.48 666.147,138.651 667.252,138.256C668.357,137.862 668.988,136.954 669.146,135.533C669.304,134.902 669.304,134.271 669.146,133.639C670.409,133.166 671.711,132.732 673.053,132.337C674.395,131.942 675.697,131.903 676.96,132.218C679.012,132.534 680.827,133.205 682.406,134.231C683.984,135.257 685.484,136.402 686.905,137.664C689.43,145.241 690.456,153.253 689.983,161.698C689.509,170.143 688.72,178.628 687.615,187.152C686.51,195.676 685.8,204.003 685.484,212.132C685.168,220.262 686.431,227.799 689.273,234.745L689.746,234.982C690.535,235.14 691.167,234.863 691.64,234.153C692.114,233.443 692.745,233.166 693.535,233.324C694.166,233.64 694.561,233.798 694.719,233.798C695.35,236.955 696.376,239.954 697.797,242.796C699.217,245.637 700.796,248.478 702.532,251.32Z" style="fill-rule:nonzero;"/>
        </g>
        <g transform="matrix(1,0,0,1,-148.868,324.911)">
            <path d="M854.073,222.906C854.073,224.642 853.441,225.945 852.178,226.813C850.916,227.681 850.284,228.825 850.284,230.246C850.284,230.878 850.6,231.667 851.231,232.614C849.021,232.614 847.522,233.324 846.732,234.745C845.943,236.166 845.154,237.744 844.365,239.481C843.102,239.481 842.076,239.481 841.287,239.481C840.497,239.481 839.866,239.639 839.392,239.954C838.919,240.27 838.485,240.704 838.09,241.257C837.695,241.809 837.182,242.638 836.551,243.743C833.552,244.374 830.671,245.361 827.908,246.703C825.146,248.044 822.462,249.465 819.858,250.965C817.253,252.464 814.609,253.964 811.926,255.463C809.242,256.963 806.48,258.186 803.638,259.134C802.218,261.501 800.165,263.396 797.482,264.816L796.772,264.816C795.982,264.974 795.311,264.856 794.759,264.461C794.206,264.067 793.536,263.869 792.746,263.869C792.273,263.869 791.957,263.948 791.799,264.106C787.063,267.263 781.775,268.842 775.935,268.842C774.356,268.842 772.857,268.723 771.436,268.486C770.015,268.25 768.516,268.131 766.937,268.131C766.463,268.131 766.148,268.289 765.99,268.605C765.832,268.921 765.674,269.236 765.516,269.552C765.358,269.868 765.161,270.183 764.924,270.499C764.688,270.815 764.096,270.973 763.149,270.973C761.412,270.973 759.676,270.736 757.939,270.262C756.203,269.789 754.388,269.71 752.493,270.026C748.863,267.973 746.021,266 743.969,264.106C741.917,262.212 740.023,259.37 738.286,255.582C737.497,253.845 736.432,252.188 735.09,250.609C733.748,249.031 732.761,247.294 732.13,245.4C731.972,244.769 731.735,243.624 731.42,241.967C731.104,240.309 730.788,238.534 730.473,236.639C730.157,234.745 729.881,232.93 729.644,231.193C729.407,229.457 729.289,228.273 729.289,227.642C729.289,225.747 729.407,223.893 729.644,222.077C729.881,220.262 730.157,218.407 730.473,216.513C731.42,210.514 732.091,204.476 732.485,198.399C732.88,192.322 734.182,186.442 736.392,180.759C736.076,179.022 735.919,177.325 735.919,175.668C735.919,174.01 735.919,172.314 735.919,170.577C735.919,167.578 735.524,165.052 734.735,163C735.998,160.948 736.629,158.659 736.629,156.133C736.629,153.292 735.445,151.635 733.077,151.161L733.077,150.451C733.077,147.136 731.972,144.531 729.762,142.637C729.762,137.112 731.143,132.968 733.906,130.206C736.668,127.443 740.339,125.036 744.916,122.984C745.548,122.037 745.785,121.248 745.627,120.616C746.732,120.932 747.758,121.248 748.705,121.563C749.652,121.879 750.599,122.037 751.546,122.037C753.125,122.037 754.545,121.8 755.808,121.327C756.282,123.221 757.505,124.365 759.478,124.76C761.452,125.154 763.07,125.668 764.332,126.299L764.332,129.377C764.332,134.271 765.516,138.927 767.884,143.347C767.253,144.61 766.858,145.952 766.7,147.373C766.542,148.793 766.463,150.135 766.463,151.398C766.463,153.292 766.542,155.186 766.7,157.081C766.858,158.975 766.937,160.79 766.937,162.527C766.937,164.421 766.74,166.315 766.345,168.209C765.95,170.104 765.043,171.761 763.622,173.182C763.464,175.234 763.346,177.562 763.267,180.167C763.188,182.771 763.03,185.415 762.793,188.099C762.557,190.783 762.122,193.387 761.491,195.913C760.86,198.438 759.912,200.491 758.65,202.069C758.492,204.437 758.373,206.844 758.294,209.291C758.216,211.738 758.176,214.066 758.176,216.276C758.176,219.749 758.373,223.853 758.768,228.589C759.163,233.324 760.228,237.271 761.965,240.428C762.754,241.691 764.293,242.638 766.582,243.269C768.871,243.901 770.726,244.216 772.146,244.216C773.883,244.216 775.658,243.94 777.474,243.388C779.289,242.835 780.591,241.848 781.381,240.428C782.328,240.586 782.959,241.059 783.275,241.848C783.591,242.638 784.143,243.269 784.932,243.743C793.93,239.954 802.928,236.324 811.926,232.851C820.923,229.378 829.763,225.353 838.445,220.775C839.708,221.406 841.05,221.722 842.47,221.722C844.049,221.722 845.628,221.564 847.206,221.248C848.785,220.933 850.363,220.775 851.942,220.775L853.599,220.775C853.915,221.722 854.073,222.432 854.073,222.906Z" style="fill-rule:nonzero;"/>
        </g>
        <g transform="matrix(1,0,0,1,-148.868,324.911)">
            <path d="M903.56,251.32C902.771,252.583 901.824,253.727 900.719,254.753C899.614,255.779 898.588,256.845 897.641,257.95C896.536,258.423 895.312,258.66 893.97,258.66C892.629,258.66 891.366,258.621 890.182,258.542C888.998,258.463 887.893,258.463 886.867,258.542C885.841,258.621 885.012,258.976 884.381,259.607C883.118,259.291 882.171,258.699 881.539,257.831C880.908,256.963 879.803,256.45 878.224,256.292C877.593,256.134 876.962,256.134 876.33,256.292C873.962,253.609 871.792,250.767 869.819,247.768C867.846,244.769 865.991,241.927 864.254,239.244C864.096,233.403 863.623,227.484 862.834,221.485C862.676,220.065 862.439,218.644 862.123,217.223C861.808,215.802 861.571,214.461 861.413,213.198C861.413,211.619 861.531,210.08 861.768,208.581C862.005,207.081 862.202,205.7 862.36,204.437C862.992,199.859 863.702,195.36 864.491,190.94C865.28,186.52 865.991,182.022 866.622,177.444C867.254,173.34 867.569,169.038 867.569,164.539C867.569,160.04 866.859,155.818 865.438,151.871L865.201,150.687C865.517,149.425 865.872,148.359 866.267,147.491C866.662,146.623 866.938,145.636 867.096,144.531C867.411,142.795 867.017,141.532 865.912,140.743C866.385,139.48 867.175,138.651 868.28,138.256C869.385,137.862 870.016,136.954 870.174,135.533C870.332,134.902 870.332,134.271 870.174,133.639C871.437,133.166 872.739,132.732 874.081,132.337C875.423,131.942 876.725,131.903 877.988,132.218C880.04,132.534 881.855,133.205 883.434,134.231C885.012,135.257 886.512,136.402 887.933,137.664C890.458,145.241 891.484,153.253 891.011,161.698C890.537,170.143 889.748,178.628 888.643,187.152C887.538,195.676 886.828,204.003 886.512,212.132C886.196,220.262 887.459,227.799 890.3,234.745L890.774,234.982C891.563,235.14 892.195,234.863 892.668,234.153C893.142,233.443 893.773,233.166 894.562,233.324C895.194,233.64 895.588,233.798 895.746,233.798C896.378,236.955 897.404,239.954 898.825,242.796C900.245,245.637 901.824,248.478 903.56,251.32Z" style="fill-rule:nonzero;"/>
        </g>
        <g transform="matrix(1,0,0,1,-148.868,324.911)">
            <path d="M1110.98,152.108C1110.98,154.318 1110.9,156.528 1110.74,158.738C1110.59,160.948 1110.35,163.158 1110.03,165.368C1108.93,166.946 1107.86,168.328 1106.84,169.512C1105.81,170.696 1105.14,172.156 1104.83,173.892C1103.09,175.155 1101.15,176.891 1099.02,179.101C1096.89,181.311 1095.99,183.521 1096.3,185.731L1092.99,185.731C1091.09,188.573 1088.88,191.019 1086.36,193.071C1083.83,195.124 1081.19,197.057 1078.42,198.873C1075.66,200.688 1072.9,202.503 1070.14,204.319C1067.37,206.134 1064.81,208.225 1062.44,210.593C1061.18,210.751 1060.15,210.988 1059.36,211.304C1058.57,211.619 1057.55,211.698 1056.28,211.54C1051.39,214.697 1046.3,217.46 1041.01,219.828C1035.72,222.196 1030.44,224.524 1025.15,226.813C1019.86,229.102 1014.61,231.509 1009.4,234.035C1004.19,236.56 999.22,239.481 994.484,242.796C994.011,242.638 993.379,242.559 992.59,242.559C991.169,242.559 989.749,242.756 988.328,243.151C986.907,243.545 985.487,243.743 984.066,243.743C983.435,243.743 982.606,243.664 981.58,243.506C980.554,243.348 979.804,243.111 979.33,242.796C978.541,242.322 977.831,241.612 977.199,240.665C976.568,239.717 976.094,238.652 975.779,237.468C975.463,236.284 975.226,235.14 975.068,234.035C974.91,232.93 974.831,231.983 974.831,231.193C974.831,230.246 974.91,229.22 975.068,228.115C975.226,227.01 975.463,225.984 975.779,225.037C980.356,224.721 984.974,223.537 989.63,221.485C994.287,219.433 998.746,217.46 1003.01,215.566C1004.11,215.092 1005.02,214.5 1005.73,213.79C1006.44,213.079 1007.19,212.448 1007.98,211.896C1008.77,211.343 1009.64,210.83 1010.59,210.356C1011.53,209.883 1012.72,209.646 1014.14,209.646L1014.85,209.646C1024.79,205.068 1034.54,200.096 1044.09,194.729C1053.64,189.362 1063.15,183.916 1072.62,178.391C1073.1,176.97 1073.85,175.55 1074.87,174.129C1075.9,172.708 1076.88,171.327 1077.83,169.985C1078.78,168.643 1079.65,167.262 1080.44,165.842C1081.22,164.421 1081.62,163 1081.62,161.579C1081.62,158.738 1080.28,156.37 1077.6,154.476L1076.65,154.476C1074.75,154.476 1073.1,154.2 1071.67,153.647C1070.26,153.095 1068.91,152.542 1067.65,151.99C1066.39,151.437 1064.97,150.964 1063.39,150.569C1061.81,150.174 1059.99,150.056 1057.94,150.214C1057.15,149.582 1055.89,149.03 1054.15,148.556C1052.42,148.083 1051,147.846 1049.89,147.846C1044.21,147.846 1038.61,148.201 1033.08,148.912C1027.56,149.622 1022.03,150.056 1016.5,150.214C1015.08,151.003 1013.74,151.714 1012.48,152.345C1011.22,152.976 1009.72,153.292 1007.98,153.292C1007.19,153.292 1006.48,153.253 1005.85,153.174C1005.22,153.095 1004.51,152.976 1003.72,152.819C1000.72,154.081 997.326,155.147 993.537,156.015C989.749,156.883 986,157.909 982.29,159.093C978.581,160.277 975.147,161.737 971.99,163.474C968.833,165.21 966.386,167.578 964.65,170.577C964.65,171.366 964.808,172.037 965.123,172.59C965.439,173.142 965.597,173.813 965.597,174.602L965.597,175.55C964.65,176.497 964.018,177.562 963.703,178.746C963.387,179.93 963.15,181.114 962.992,182.298C962.835,183.482 962.637,184.666 962.4,185.85C962.164,187.033 961.572,188.178 960.625,189.283C961.256,191.651 961.572,194.255 961.572,197.097C961.572,200.254 961.374,203.411 960.98,206.568C960.585,209.725 960.388,212.882 960.388,216.039C960.388,219.038 960.703,221.722 961.335,224.09C960.388,225.037 959.993,226.458 960.151,228.352C960.309,230.246 959.914,231.667 958.967,232.614C958.967,233.877 959.322,234.745 960.033,235.219C960.743,235.692 961.177,236.481 961.335,237.586C960.703,240.27 960.388,243.19 960.388,246.347C960.388,250.925 960.901,255.582 961.927,260.317C962.953,265.053 964.176,269.71 965.597,274.288C968.123,273.498 970.846,272.827 973.766,272.275C976.686,271.722 979.488,271.446 982.172,271.446C982.645,271.446 983.119,271.486 983.592,271.565C984.066,271.644 984.54,271.683 985.013,271.683C985.329,273.419 985.96,274.998 986.907,276.419C987.854,277.839 988.723,279.418 989.512,281.154C988.723,282.259 988.052,283.167 987.499,283.877C986.947,284.588 986.671,285.574 986.671,286.837C984.461,286.995 982.645,287.587 981.225,288.613C979.804,289.639 978.225,290.783 976.489,292.046L975.542,292.046C972.858,292.046 970.648,292.559 968.912,293.585C967.176,294.611 965.202,295.756 962.992,297.019C961.098,296.229 959.204,295.835 957.31,295.835C955.258,295.835 953.205,296.229 951.153,297.019C948.628,295.914 946.576,294.217 944.997,291.928C943.418,289.639 942.077,287.113 940.972,284.351C939.867,281.588 938.88,278.786 938.012,275.945C937.144,273.104 936.157,270.499 935.052,268.131L935.052,264.343C935.052,260.712 934.776,257.2 934.223,253.806C933.671,250.412 933.395,246.9 933.395,243.269C933.395,241.848 933.513,240.349 933.75,238.77C933.987,237.192 934.421,235.692 935.052,234.271C934.736,232.851 934.579,231.47 934.579,230.128C934.579,228.786 934.579,227.326 934.579,225.747C934.579,221.012 934.776,216.276 935.171,211.54C935.565,206.805 935.762,202.069 935.762,197.333C935.762,193.861 935.526,190.309 935.052,186.678C934.263,186.994 933.553,187.31 932.921,187.625C932.29,187.941 931.579,188.099 930.79,188.099C930.001,188.099 929.251,188.02 928.541,187.862C927.83,187.704 927.159,187.547 926.528,187.389C924.949,185.968 923.844,184.232 923.213,182.179C922.582,180.127 921.713,178.233 920.608,176.497C920.608,173.497 921.043,171.011 921.911,169.038C922.779,167.065 923.844,165.25 925.107,163.592C926.37,161.935 927.672,160.317 929.014,158.738C930.356,157.16 931.5,155.186 932.448,152.819L933.395,152.819C935.92,152.819 938.446,151.99 940.972,150.332C943.497,148.675 946.339,147.846 949.496,147.846C950.601,146.425 952.1,145.202 953.995,144.176C955.889,143.15 957.902,142.321 960.033,141.69C962.164,141.058 964.295,140.624 966.426,140.387C968.557,140.151 970.569,140.032 972.464,140.032C973.095,138.927 974.042,138.177 975.305,137.783C976.568,137.388 977.87,136.994 979.212,136.599C980.554,136.204 981.817,135.81 983,135.415C984.184,135.02 985.171,134.271 985.96,133.166C987.223,133.481 988.407,133.639 989.512,133.639C991.564,133.639 993.537,133.363 995.431,132.81C997.326,132.258 999.22,131.627 1001.11,130.916C1003.01,130.206 1004.94,129.535 1006.92,128.904C1008.89,128.272 1010.98,127.956 1013.19,127.956C1013.98,127.956 1014.77,127.996 1015.56,128.075C1016.35,128.154 1017.14,128.193 1017.93,128.193C1019.19,128.193 1019.94,127.72 1020.18,126.772C1020.41,125.825 1020.93,125.115 1021.71,124.641C1022.19,124.799 1023.06,124.878 1024.32,124.878C1027.48,124.878 1030.55,124.602 1033.55,124.05C1036.55,123.497 1039.63,123.221 1042.79,123.221C1044.21,123.221 1045.63,123.3 1047.05,123.458C1048.47,123.615 1049.89,124.01 1051.31,124.641C1051.63,124.168 1051.94,123.773 1052.26,123.458C1052.58,123.142 1052.81,122.747 1052.97,122.274C1060.7,122.747 1068.01,124.326 1074.87,127.009C1081.74,129.693 1088.88,132.061 1096.3,134.113C1097.25,135.533 1098.39,136.796 1099.73,137.901C1101.08,139.006 1102.42,140.111 1103.76,141.216C1105.1,142.321 1106.4,143.426 1107.67,144.531C1108.93,145.636 1110.03,146.978 1110.98,148.556L1110.98,152.108Z" style="fill-rule:nonzero;"/>
        </g>
        <g transform="matrix(1,0,0,1,-148.868,324.911)">
            <path d="M1268.68,133.166L1268.68,134.113C1267.57,134.428 1267.02,135.218 1267.02,136.481C1265.28,137.27 1263.47,137.862 1261.57,138.256C1259.68,138.651 1257.87,139.243 1256.13,140.032C1254.39,139.874 1252.62,139.756 1250.8,139.677C1248.99,139.598 1247.21,139.559 1245.47,139.559C1240.74,139.559 1236,139.717 1231.27,140.032C1226.53,140.348 1221.8,140.348 1217.06,140.032C1214.85,141.295 1212.44,142.282 1209.84,142.992C1207.23,143.702 1204.75,144.058 1202.38,144.058C1200.49,144.058 1198.83,143.821 1197.41,143.347C1193.62,145.241 1189.47,146.82 1184.98,148.083C1180.48,149.346 1175.94,150.569 1171.36,151.753C1166.78,152.937 1162.4,154.279 1158.22,155.778C1154.04,157.278 1150.37,159.369 1147.21,162.053C1146.89,164.263 1146.66,166.433 1146.5,168.564C1146.34,170.696 1146.26,172.787 1146.26,174.839C1146.26,177.049 1146.38,179.101 1146.62,180.996C1146.85,182.89 1147.37,184.784 1148.16,186.678C1148.94,186.994 1149.85,187.231 1150.88,187.389C1151.9,187.547 1152.81,187.625 1153.6,187.625C1154.39,187.625 1155.18,187.507 1155.97,187.27C1156.76,187.033 1157.31,186.52 1157.63,185.731C1160,185.415 1162.36,185.297 1164.73,185.376C1167.1,185.455 1169.47,185.494 1171.83,185.494C1174.2,185.494 1176.53,185.415 1178.82,185.258C1181.11,185.1 1183.36,184.705 1185.57,184.074C1188.09,183.442 1190.58,183.048 1193.03,182.89C1195.47,182.732 1197.88,182.574 1200.25,182.416C1202.62,182.258 1205.06,181.982 1207.59,181.587C1210.11,181.193 1212.72,180.364 1215.4,179.101C1217.45,179.891 1219.55,180.285 1221.68,180.285C1223.81,180.285 1225.9,180.443 1227.95,180.759C1229.06,181.548 1229.96,182.416 1230.67,183.363C1231.38,184.31 1231.74,185.415 1231.74,186.678C1231.74,188.888 1230.95,191.098 1229.37,193.308C1227.79,195.518 1226.53,197.57 1225.58,199.465L1222.98,199.465C1219.19,199.465 1215.52,199.978 1211.97,201.004C1208.42,202.03 1204.87,203.214 1201.31,204.555C1197.76,205.897 1194.21,207.081 1190.66,208.107C1187.11,209.133 1183.44,209.646 1179.65,209.646C1179.02,209.646 1178.66,210.001 1178.58,210.712C1178.5,211.422 1178.31,211.935 1177.99,212.251C1177.2,212.093 1176.02,212.014 1174.44,212.014C1170.81,212.014 1167.34,212.409 1164.02,213.198C1160.7,213.987 1157.31,214.382 1153.84,214.382C1152.89,214.382 1151.94,214.342 1151,214.263C1150.05,214.184 1149.1,214.066 1148.16,213.908C1147.37,215.171 1146.34,216 1145.08,216.394C1143.82,216.789 1142.63,217.46 1141.53,218.407C1141.05,219.828 1140.78,221.564 1140.7,223.616C1140.62,225.668 1140.54,227.76 1140.46,229.891C1140.38,232.022 1140.18,234.035 1139.87,235.929C1139.55,237.823 1138.92,239.323 1137.97,240.428C1138.13,241.217 1138.76,241.493 1139.87,241.257C1140.97,241.02 1141.53,241.533 1141.53,242.796C1141.53,244.216 1141.37,245.716 1141.05,247.294C1140.74,248.873 1140.58,250.452 1140.58,252.03C1140.58,255.029 1140.93,258.305 1141.64,261.857C1142.36,265.408 1143.46,268.684 1144.96,271.683C1146.46,274.682 1148.47,277.168 1151,279.142C1153.52,281.115 1156.68,282.101 1160.47,282.101C1162.99,282.101 1165.36,281.628 1167.57,280.681C1169.78,279.734 1171.6,278.155 1173.02,275.945L1174.2,275.708C1174.83,275.708 1175.42,275.787 1175.98,275.945C1176.53,276.103 1177.12,276.182 1177.75,276.182C1178.7,276.182 1179.92,275.59 1181.42,274.406C1182.92,273.222 1184.58,271.841 1186.4,270.262C1188.21,268.684 1190.07,267.145 1191.96,265.645C1193.86,264.145 1195.67,263.08 1197.41,262.448C1198.51,260.239 1199.58,258.029 1200.6,255.819C1201.63,253.609 1203.17,251.872 1205.22,250.609L1205.22,243.743C1206.8,242.006 1208.5,240.428 1210.31,239.007C1212.13,237.586 1213.51,235.771 1214.45,233.561C1215.24,233.877 1215.99,234.114 1216.7,234.271C1217.41,234.429 1218.16,234.508 1218.95,234.508C1219.74,234.508 1220.57,234.429 1221.44,234.271C1222.31,234.114 1223.14,233.877 1223.93,233.561C1225.19,235.298 1226.17,237.231 1226.89,239.362C1227.6,241.493 1228.5,243.506 1229.61,245.4C1228.19,248.242 1226.53,251.635 1224.64,255.582C1222.74,259.528 1220.69,263.475 1218.48,267.421C1216.27,271.367 1213.94,275.116 1211.5,278.668C1209.05,282.22 1206.64,284.943 1204.27,286.837C1203.8,287.311 1202.77,287.863 1201.19,288.495C1199.46,289.757 1197.88,290.981 1196.46,292.165C1195.04,293.349 1193.7,294.73 1192.43,296.308C1187.86,297.729 1183.48,299.623 1179.29,301.991C1175.11,304.359 1170.97,306.648 1166.86,308.858C1164.97,308.384 1162.91,308.147 1160.7,308.147C1158.81,308.147 1156.92,308.266 1155.02,308.503C1153.13,308.739 1151.08,308.858 1148.87,308.858C1148.24,308.068 1147.33,307.555 1146.14,307.319C1144.96,307.082 1144.53,306.253 1144.84,304.832C1139.47,304.517 1135.13,303.057 1131.82,300.452C1128.5,297.847 1125.7,294.651 1123.41,290.862C1121.12,287.074 1119.27,282.97 1117.85,278.55C1116.43,274.13 1114.93,269.868 1113.35,265.763L1113.35,265.053C1113.35,264.264 1113.66,263.79 1114.3,263.632C1114.93,263.475 1115.24,263.001 1115.24,262.212C1115.24,261.896 1115.16,261.659 1115.01,261.501C1114.53,259.765 1114.14,258.265 1113.82,257.003C1113.51,255.74 1113.35,254.24 1113.35,252.504C1113.35,249.978 1113.51,247.492 1113.82,245.045C1114.14,242.598 1114.3,240.112 1114.3,237.586C1114.3,235.061 1113.98,232.851 1113.35,230.957C1113.98,230.167 1114.49,229.102 1114.89,227.76C1115.28,226.418 1115.56,225.037 1115.72,223.616C1115.88,222.196 1115.99,220.775 1116.07,219.354C1116.15,217.934 1116.35,216.671 1116.66,215.566C1116.03,213.829 1115.48,212.29 1115.01,210.948C1114.53,209.607 1114.3,207.989 1114.3,206.094L1114.3,204.437C1115.88,201.753 1117.22,198.991 1118.32,196.15C1119.43,193.308 1120.61,190.388 1121.87,187.389L1121.87,186.678C1121.87,182.101 1121.71,177.523 1121.4,172.945C1121.08,168.367 1120.93,163.789 1120.93,159.212C1120.93,157.633 1120.93,156.094 1120.93,154.594C1120.93,153.095 1121.01,151.635 1121.16,150.214C1122.42,149.582 1123.37,148.714 1124,147.609C1124.63,146.504 1125.58,145.636 1126.85,145.005L1134.66,145.005C1135.13,144.215 1135.61,143.426 1136.08,142.637C1136.55,141.848 1136.87,140.979 1137.03,140.032C1138.76,139.559 1140.46,138.888 1142.12,138.02C1143.78,137.151 1145.31,136.244 1146.74,135.297C1148.94,134.034 1150.96,132.889 1152.77,131.863C1154.59,130.837 1156.4,129.969 1158.22,129.259C1160.03,128.548 1161.97,127.956 1164.02,127.483C1166.07,127.009 1168.44,126.615 1171.12,126.299C1172.39,126.299 1173.21,126.062 1173.61,125.589C1174,125.115 1174.6,124.563 1175.39,123.931C1177.28,124.247 1179.17,124.523 1181.07,124.76C1182.96,124.997 1184.86,125.115 1186.75,125.115C1190.54,125.115 1194.09,124.405 1197.41,122.984C1202.14,122.984 1206.84,122.905 1211.5,122.747C1216.15,122.589 1220.85,122.51 1225.58,122.51C1229.69,122.51 1233.79,122.668 1237.9,122.984C1242,123.3 1246.03,123.852 1249.97,124.641C1251.39,124.168 1252.97,123.931 1254.71,123.931C1256.6,123.931 1258.54,124.128 1260.51,124.523C1262.48,124.918 1264.42,124.957 1266.31,124.641C1266.47,126.378 1266.9,127.838 1267.61,129.022C1268.32,130.206 1268.68,131.587 1268.68,133.166Z" style="fill-rule:nonzero;"/>
        </g>
    </g>
</svg>
